{"extensionsUsed" : ["KHR_materials_specular", "KHR_materials_ior"], "accessors" : [{"bufferView" : 0, "byteOffset" : 0, "componentType" : 5123, "count" : 6144, "type" : "SCALAR", "max" : [4704], "min" : [0]}, {"bufferView" : 1, "byteOffset" : 0, "componentType" : 5126, "count" : 4705, "type" : "VEC3", "max" : [48.880313873291016, 49.36491775512695, -2.8662569522857666], "min" : [-37.298805236816406, -47.64948654174805, -34.66903305053711], "name" : "POSITION"}, {"bufferView" : 1, "byteOffset" : 12, "componentType" : 5126, "count" : 4705, "type" : "VEC3", "max" : [0.9260490536689758, 0.9818904995918274, -0.08499779552221298], "min" : [-0.989878237247467, -0.8609952926635742, -0.9996791481971741], "name" : "NORMAL"}, {"bufferView" : 1, "byteOffset" : 24, "componentType" : 5126, "count" : 4705, "type" : "VEC2", "max" : [0.974494993686676, 1.989408016204834], "min" : [0.0547339990735054, 1.0134050846099854], "name" : "TEXCOORD_0"}], "asset" : {"generator" : "Aspose.3D 24.1.0", "version" : "2.0"}, "buffers" : [{"uri" : "data:application/octet-stream;base64,", "byteLength" : 208904}], "bufferViews" : [{"buffer" : 0, "byteOffset" : 0, "byteLength" : 12288, "target" : 34963}, {"buffer" : 0, "byteOffset" : 12292, "byteLength" : 196608, "byteStride" : 32, "target" : 34962}], "images" : [{"uri" : "data:image/png;base64,"}], "materials" : [{"name" : "tree_stump_material", "extensions" : {"KHR_materials_specular" : {"specularFactor" : 0.06370999664068222}, "KHR_materials_ior" : {"ior" : 1}}, "pbrMetallicRoughness" : {"baseColorFactor" : [1, 1, 1, 1], "metallicFactor" : 0.01344000082463026, "roughnessFactor" : 0.5594121217727661}, "normalTexture" : {"index" : 0, "texCoord" : 0, "scale" : 1}, "emissiveFactor" : [0, 0, 0], "alphaMode" : "OPAQUE", "doubleSided" : true}], "meshes" : [{"primitives" : [{"attributes" : {"POSITION" : 1, "NORMAL" : 2, "TEXCOORD_0" : 3}, "indices" : 0, "material" : 0, "mode" : 4}]}], "nodes" : [{"matrix" : [0.07191342115402222, 0, 0, 0, 0, -9.662205032182276E-09, 0.07191343081622725, 0, 0, -0.07191343081622725, -9.662205032182276E-09, 0, 0, 0, 0, 1], "mesh" : 0, "name" : "tree stump v top"}], "samplers" : [{"magFilter" : 9729, "minFilter" : 9987, "wrapS" : 10497, "wrapT" : 10497}], "scene" : 0, "scenes" : [{"nodes" : [0]}], "textures" : [{"sampler" : 0, "source" : 0, "name" : ""}]}