{"accessors" : [{"bufferView" : 0, "byteOffset" : 0, "componentType" : 5123, "count" : 3312, "type" : "SCALAR", "max" : [2812], "min" : [0]}, {"bufferView" : 1, "byteOffset" : 0, "componentType" : 5126, "count" : 2813, "type" : "VEC3", "max" : [1.6229408979415894, 0.23132827877998352, -0.20021042227745056], "min" : [-1.4175455570220947, -0.3525959551334381, -3.762202262878418], "name" : "POSITION"}, {"bufferView" : 1, "byteOffset" : 12, "componentType" : 5126, "count" : 2813, "type" : "VEC3", "max" : [0.999819278717041, 0.9998613595962524, 0.996519148349762], "min" : [-0.9999016523361206, -0.9999802112579346, -0.9999746084213257], "name" : "NORMAL"}, {"bufferView" : 1, "byteOffset" : 24, "componentType" : 5126, "count" : 2813, "type" : "VEC2", "max" : [0.8475568890571594, 1.9998774528503418], "min" : [0.010251023806631565, 1.0001225471496582], "name" : "TEXCOORD_0"}, {"bufferView" : 1, "byteOffset" : 32, "componentType" : 5126, "count" : 2813, "type" : "VEC2", "max" : [0.8475568890571594, 1.9998774528503418], "min" : [0.010251023806631565, 1.0001225471496582], "name" : "TEXCOORD_1"}, {"bufferView" : 1, "byteOffset" : 40, "componentType" : 5126, "count" : 2813, "type" : "VEC2", "max" : [0.8475568890571594, 1.9998774528503418], "min" : [0.010251023806631565, 1.0001225471496582], "name" : "TEXCOORD_2"}, {"bufferView" : 1, "byteOffset" : 48, "componentType" : 5126, "count" : 2813, "type" : "VEC2", "max" : [0.8475568890571594, 1.9998774528503418], "min" : [0.010251023806631565, 1.0001225471496582], "name" : "TEXCOORD_3"}, {"bufferView" : 1, "byteOffset" : 56, "componentType" : 5126, "count" : 2813, "type" : "VEC2", "max" : [0.8475568890571594, 1.9998774528503418], "min" : [0.010251023806631565, 1.0001225471496582], "name" : "TEXCOORD_4"}, {"bufferView" : 1, "byteOffset" : 64, "componentType" : 5126, "count" : 2813, "type" : "VEC2", "max" : [0.8475568890571594, 1.9998774528503418], "min" : [0.010251023806631565, 1.0001225471496582], "name" : "TEXCOORD_5"}, {"bufferView" : 1, "byteOffset" : 72, "componentType" : 5126, "count" : 2813, "type" : "VEC2", "max" : [0.8475568890571594, 1.9998774528503418], "min" : [0.010251023806631565, 1.0001225471496582], "name" : "TEXCOORD_6"}, {"bufferView" : 1, "byteOffset" : 80, "componentType" : 5126, "count" : 2813, "type" : "VEC2", "max" : [0.8475568890571594, 1.9998774528503418], "min" : [0.010251023806631565, 1.0001225471496582], "name" : "TEXCOORD_7"}], "asset" : {"generator" : "Aspose.3D 24.1.0", "version" : "2.0"}, "buffers" : [{"uri" : "data:application/octet-stream;base64,", "byteLength" : 298088}], "bufferViews" : [{"buffer" : 0, "byteOffset" : 0, "byteLength" : 6624, "target" : 34963}, {"buffer" : 0, "byteOffset" : 6628, "byteLength" : 291456, "byteStride" : 88, "target" : 34962}], "materials" : [{"name" : "Holder_-_Assets", "pbrMetallicRoughness" : {"baseColorFactor" : [0.45870500802993774, 0.5756629705429077, 0.29339098930358887, 1], "metallicFactor" : 0, "roughnessFactor" : 0.6000000238418579}, "emissiveFactor" : [0, 0, 0], "alphaMode" : "OPAQUE", "doubleSided" : true}], "meshes" : [{"primitives" : [{"attributes" : {"POSITION" : 1, "NORMAL" : 2, "TEXCOORD_0" : 3, "TEXCOORD_1" : 4, "TEXCOORD_2" : 5, "TEXCOORD_3" : 6, "TEXCOORD_4" : 7, "TEXCOORD_5" : 8, "TEXCOORD_6" : 9, "TEXCOORD_7" : 10}, "indices" : 0, "material" : 0, "mode" : 4}]}], "nodes" : [{"mesh" : 0, "name" : "Cube.001_Holder - Assets_0"}, {"children" : [0], "matrix" : [2.254885196685791, 0, 0, 0, 0, -1.063254237626333E-06, 2.2548848810856437, 0, 0, -2.2548851195042148, -1.0632543500487267E-06, 0, 0.3661499619483948, 127.24262237548828, -2.7821450233459473, 1], "name" : "Cube.001"}, {"children" : [1], "matrix" : [1, 0, 0, 0, 0, 1, 0, 0, 0, 0, 1, 0, 0, 1.52587890625E-05, 0, 1], "name" : "RootNode.001"}, {"children" : [2], "matrix" : [1, 0, 0, 0, 0, 1, 0, 0, 0, 0, 1, 0, 0, 1.52587890625E-05, 0, 1], "name" : "RootNode"}, {"children" : [3], "matrix" : [0.009999998845160007, 0, 0, 0, 0, -3.0294631861642154E-09, 0.010000001296841973, 0, 0, -0.010000001296841973, -3.0294631861642154E-09, 0, 0, 0, 0, 1], "name" : "6b76340099a24e508acee4d6b423e1b8.fbx"}, {"children" : [4], "matrix" : [25.993139266967773, 0, 0, 0, 0, -7.87452802642159E-06, -25.993149821351185, 0, 0, 25.993149821351185, -7.87452802642159E-06, 0, 0, -33.6351203918457, 0.8512697815895081, 1], "name" : "Sketchfab_model"}], "scene" : 0, "scenes" : [{"nodes" : [5]}]}