{"extensionsUsed" : ["KHR_materials_specular"], "accessors" : [{"bufferView" : 0, "byteOffset" : 0, "componentType" : 5123, "count" : 1140, "type" : "SCALAR", "max" : [951], "min" : [0]}, {"bufferView" : 1, "byteOffset" : 0, "componentType" : 5126, "count" : 952, "type" : "VEC3", "max" : [9.259739875793457, 5.698599815368652, 0.7426329851150513], "min" : [-8.95730972290039, -10.41759967803955, -17.54960060119629], "name" : "POSITION"}, {"bufferView" : 1, "byteOffset" : 12, "componentType" : 5126, "count" : 952, "type" : "VEC3", "max" : [0.9846594333648682, 0.9951146841049194, 0.9945294260978699], "min" : [-0.9753369688987732, -0.9975820779800415, -0.9997844099998474], "name" : "NORMAL"}, {"bufferView" : 1, "byteOffset" : 24, "componentType" : 5126, "count" : 952, "type" : "VEC2", "max" : [0.7496910095214844, 1.9900000095367432], "min" : [0.009999999776482582, 1.0099999904632568], "name" : "TEXCOORD_0"}, {"bufferView" : 0, "byteOffset" : 2280, "componentType" : 5123, "count" : 360, "type" : "SCALAR", "max" : [359], "min" : [0]}, {"bufferView" : 2, "byteOffset" : 0, "componentType" : 5126, "count" : 360, "type" : "VEC3", "max" : [13.91919994354248, 7.3297200202941895, -8.734769821166992], "min" : [-14.06190013885498, -13.472000122070312, -25.799100875854492], "name" : "POSITION"}, {"bufferView" : 2, "byteOffset" : 12, "componentType" : 5126, "count" : 360, "type" : "VEC3", "max" : [0.9856809973716736, 0.9832362532615662, 0.9966012835502625], "min" : [-0.9856809973716736, -0.9832362532615662, -0.9966126680374146], "name" : "NORMAL"}, {"bufferView" : 2, "byteOffset" : 24, "componentType" : 5126, "count" : 360, "type" : "VEC2", "max" : [0.9172409772872925, 1.9900000095367432], "min" : [0.009999999776482582, 1.0099999904632568], "name" : "TEXCOORD_0"}], "asset" : {"generator" : "Aspose.3D 24.1.0", "version" : "2.0"}, "buffers" : [{"uri" : "data:application/octet-stream;base64,", "byteLength" : 51012}], "bufferViews" : [{"buffer" : 0, "byteOffset" : 0, "byteLength" : 3000, "target" : 34963}, {"buffer" : 0, "byteOffset" : 3004, "byteLength" : 36480, "byteStride" : 32, "target" : 34962}, {"buffer" : 0, "byteOffset" : 39488, "byteLength" : 11520, "byteStride" : 32, "target" : 34962}], "materials" : [{"name" : "Bark", "extensions" : {"KHR_materials_specular" : {"specularFactor" : 0}}, "pbrMetallicRoughness" : {"baseColorFactor" : [0.20759500563144684, 0.1385129988193512, 0.055181000381708145, 1], "metallicFactor" : 0, "roughnessFactor" : 0.494035542011261}, "emissiveFactor" : [0, 0, 0], "alphaMode" : "OPAQUE", "doubleSided" : true}, {"name" : "Tree", "extensions" : {"KHR_materials_specular" : {"specularFactor" : 0}}, "pbrMetallicRoughness" : {"baseColorFactor" : [0.25686100125312805, 0.4405060112476349, 0.11076900362968445, 1], "metallicFactor" : 0, "roughnessFactor" : 0.494035542011261}, "emissiveFactor" : [0, 0, 0], "alphaMode" : "OPAQUE", "doubleSided" : true}], "meshes" : [{"primitives" : [{"attributes" : {"POSITION" : 1, "NORMAL" : 2, "TEXCOORD_0" : 3}, "indices" : 0, "material" : 0, "mode" : 4}, {"attributes" : {"POSITION" : 5, "NORMAL" : 6, "TEXCOORD_0" : 7}, "indices" : 4, "material" : 1, "mode" : 4}]}], "nodes" : [{"matrix" : [1, 0, 0, 0, 0, -1.3435885648505064E-07, 1.0000001343588565, 0, 0, -1.0000001343588565, -1.3435885648505064E-07, 0, 0, 0, 0, 1], "mesh" : 0, "name" : "Tree_lp_11"}], "scene" : 0, "scenes" : [{"nodes" : [0]}]}